<svg width="46" height="41" viewBox="0 0 46 41" fill="none" xmlns="http://www.w3.org/2000/svg">
<path fill-rule="evenodd" clip-rule="evenodd" d="M45 40.438H1C0.447 40.438 0 39.991 0 39.438C0 38.885 0.447 38.438 1 38.438H45C45.553 38.438 46 38.885 46 39.438C46 39.991 45.553 40.438 45 40.438ZM15 30.438C15.553 30.438 16 30.885 16 31.438C16 31.991 15.553 32.438 15 32.438H7C6.447 32.438 6 31.991 6 31.438C6 30.885 6.447 30.438 7 30.438H8V17.438H7C6.447 17.438 6 16.991 6 16.438C6 15.886 6.447 15.438 7 15.438H15C15.553 15.438 16 15.886 16 16.438C16 16.991 15.553 17.438 15 17.438H14V30.438H15ZM12 17.438H10V30.438H12V17.438ZM27 30.438C27.553 30.438 28 30.885 28 31.438C28 31.991 27.553 32.438 27 32.438H19C18.447 32.438 18 31.991 18 31.438C18 30.885 18.447 30.438 19 30.438H20V17.438H19C18.447 17.438 18 16.991 18 16.438C18 15.886 18.447 15.438 19 15.438H27C27.553 15.438 28 15.886 28 16.438C28 16.991 27.553 17.438 27 17.438H26V30.438H27ZM24 17.438H22V30.438H24V17.438ZM43 35.438C43 35.991 42.553 36.438 42 36.438H4C3.447 36.438 3 35.991 3 35.438C3 34.885 3.447 34.438 4 34.438H42C42.553 34.438 43 34.885 43 35.438ZM39 30.438C39.553 30.438 40 30.885 40 31.438C40 31.991 39.553 32.438 39 32.438H31C30.447 32.438 30 31.991 30 31.438C30 30.885 30.447 30.438 31 30.438H32V17.438H31C30.447 17.438 30 16.991 30 16.438C30 15.886 30.447 15.438 31 15.438H39C39.553 15.438 40 15.886 40 16.438C40 16.991 39.553 17.438 39 17.438H38V30.438H39ZM36 17.438H34V30.438H36V17.438ZM2 11.438L23 0L44 11.438V13.438H2V11.438ZM39.541 11.438L23 2.886L6.396 11.438H39.541Z" fill="#FFC700"/>
</svg>
